<?xml version="1.0" encoding="UTF-8" standalone="no"?>
<!DOCTYPE svg PUBLIC "-//W3C//DTD SVG 1.1//EN" "http://www.w3.org/Graphics/SVG/1.1/DTD/svg11.dtd">
<svg width="100%" height="100%" viewBox="0 0 284 60" version="1.1" xmlns="http://www.w3.org/2000/svg" xmlns:xlink="http://www.w3.org/1999/xlink" xml:space="preserve" xmlns:serif="http://www.serif.com/" style="fill-rule:evenodd;clip-rule:evenodd;stroke-linejoin:round;stroke-miterlimit:2;">
    <g>
        <path d="M39.8,21.3C40.9,19.1 42.4,17.3 44.4,16.1C46.3,14.9 48.5,14.3 50.9,14.3C52.9,14.3 54.7,14.7 56.3,15.5C57.8,16.3 59,17.4 59.8,18.8L59.8,14.7L68.6,14.7L68.6,43.6L59.8,43.6L59.8,39.5C58.9,40.8 57.7,41.9 56.2,42.8C54.7,43.6 52.9,44 50.8,44C48.5,44 46.3,43.4 44.4,42.2C42.5,41 40.9,39.2 39.8,37C38.7,34.7 38.1,32.1 38.1,29.2C38.1,26.1 38.6,23.5 39.8,21.3ZM57.9,23.9C56.7,22.6 55.2,22 53.4,22C51.6,22 50.2,22.6 48.9,23.9C47.7,25.2 47.1,26.9 47.1,29.1C47.1,31.3 47.7,33.1 48.9,34.3C50.1,35.6 51.6,36.2 53.4,36.2C55.2,36.2 56.6,35.6 57.9,34.3C59.1,33 59.7,31.3 59.7,29.1C59.7,26.9 59.1,25.2 57.9,23.9Z" style="fill:rgb(56,42,255);fill-rule:nonzero;"/>
        <path d="M87.8,22L83,22L83,43.5L74.2,43.5L74.2,22L71,22L71,14.7L74.2,14.7L74.2,13.9C74.2,10.3 75.2,7.7 77.3,5.8C79.3,4 82.3,3 86.2,3C86.9,3 87.3,3 87.6,3.1L87.6,10.6C85.9,10.5 84.7,10.7 84,11.3C83.3,11.9 83,12.9 83,14.5L83,14.8L87.8,14.8L87.8,22Z" style="fill:rgb(56,42,255);fill-rule:nonzero;"/>
        <path d="M117.4,31.2L97.4,31.2C97.5,33 98.1,34.4 99.1,35.3C100.1,36.2 101.4,36.7 102.8,36.7C105,36.7 106.5,35.8 107.4,33.9L116.8,33.9C116.3,35.8 115.4,37.5 114.2,39C112.9,40.5 111.4,41.7 109.5,42.6C107.6,43.5 105.5,43.9 103.1,43.9C100.3,43.9 97.8,43.3 95.5,42.1C93.3,40.9 91.6,39.2 90.3,36.9C89.1,34.7 88.4,32 88.4,29C88.4,26 89,23.4 90.2,21.1C91.4,18.9 93.1,17.1 95.3,15.9C97.5,14.7 100,14.1 102.9,14.1C105.7,14.1 108.2,14.7 110.3,15.9C112.5,17.1 114.2,18.7 115.4,20.9C116.6,23.1 117.2,25.6 117.2,28.5C117.6,29.5 117.5,30.3 117.4,31.2ZM108.5,26.3C108.5,24.8 108,23.6 106.9,22.7C105.9,21.8 104.6,21.4 103,21.4C101.5,21.4 100.3,21.8 99.3,22.7C98.3,23.6 97.7,24.8 97.4,26.4L108.5,26.4L108.5,26.3Z" style="fill:rgb(56,42,255);fill-rule:nonzero;"/>
        <path d="M122.4,21.6C123.6,19.4 125.2,17.7 127.3,16.5C129.4,15.3 131.8,14.7 134.5,14.7C138,14.7 140.9,15.5 143.1,17.2C145.4,18.9 146.8,21.2 147.6,24.2L142.5,24.2C142,22.5 141.1,21.1 139.7,20.1C138.3,19.1 136.6,18.6 134.5,18.6C131.8,18.6 129.6,19.5 128,21.4C126.3,23.2 125.5,25.9 125.5,29.2C125.5,32.6 126.3,35.3 128,37.1C129.7,39 131.8,39.9 134.5,39.9C136.6,39.9 138.3,39.4 139.7,38.5C141.1,37.5 142,36.2 142.5,34.4L147.6,34.4C146.8,37.3 145.3,39.6 143,41.4C140.7,43.1 137.9,44 134.5,44C131.8,44 129.4,43.4 127.3,42.2C125.2,41 123.6,39.3 122.4,37.1C121.2,34.9 120.6,32.3 120.6,29.3C120.7,26.4 121.3,23.8 122.4,21.6Z" style="fill:rgb(55,55,58);fill-rule:nonzero;"/>
        <path d="M175.7,15.2L158.6,56.9L153.7,56.9L159.3,43.2L147.9,15.2L153.1,15.2L162,38.2L170.8,15.2L175.7,15.2Z" style="fill:rgb(55,55,58);fill-rule:nonzero;"/>
        <path d="M186.6,16.4C188.4,15.3 190.6,14.8 193,14.8C195.5,14.8 197.8,15.4 199.9,16.6C202,17.8 203.6,19.5 204.7,21.7C205.9,23.9 206.5,26.4 206.5,29.3C206.5,32.2 205.9,34.7 204.7,37C203.5,39.2 201.9,41 199.9,42.2C197.8,43.4 195.6,44.1 193,44.1C190.6,44.1 188.5,43.6 186.6,42.5C184.8,41.4 183.4,40.1 182.4,38.4L182.4,57L177.7,57L177.7,15.2L182.4,15.2L182.4,20.4C183.4,18.8 184.8,17.5 186.6,16.4ZM200.4,23.7C199.5,22.1 198.4,20.9 196.9,20.1C195.4,19.3 193.8,18.9 192.1,18.9C190.4,18.9 188.8,19.3 187.3,20.2C185.8,21 184.7,22.3 183.8,23.9C182.9,25.5 182.5,27.4 182.5,29.5C182.5,31.6 182.9,33.5 183.8,35.1C184.7,36.7 185.9,37.9 187.3,38.8C188.8,39.6 190.4,40.1 192.1,40.1C193.9,40.1 195.5,39.7 196.9,38.8C198.4,38 199.5,36.7 200.4,35.1C201.3,33.5 201.7,31.6 201.7,29.4C201.7,27.1 201.3,25.3 200.4,23.7Z" style="fill:rgb(55,55,58);fill-rule:nonzero;"/>
        <path d="M229,16.1C230.7,17 232.1,18.4 233.1,20.2C234.1,22 234.6,24.3 234.6,26.9L234.6,43.6L229.9,43.6L229.9,27.6C229.9,24.8 229.2,22.6 227.8,21.1C226.4,19.6 224.5,18.9 222,18.9C219.5,18.9 217.5,19.7 216.1,21.2C214.6,22.8 213.9,25 213.9,28L213.9,43.7L209.2,43.7L209.2,5.3L213.9,5.3L213.9,19.3C214.8,17.9 216.1,16.7 217.8,15.9C219.4,15.1 221.3,14.7 223.3,14.7C225.3,14.7 227.3,15.1 229,16.1Z" style="fill:rgb(55,55,58);fill-rule:nonzero;"/>
        <path d="M264.4,31.1L241.8,31.1C242,33.9 242.9,36.1 244.7,37.6C246.4,39.2 248.6,40 251,40C253,40 254.7,39.5 256.1,38.6C257.5,37.7 258.4,36.4 259,34.8L264.1,34.8C263.3,37.5 261.8,39.7 259.5,41.4C257.2,43.1 254.4,44 251,44C248.3,44 245.9,43.4 243.8,42.2C241.7,41 240,39.3 238.8,37.1C237.6,34.9 237,32.3 237,29.4C237,26.5 237.6,23.9 238.8,21.7C240,19.5 241.6,17.8 243.7,16.6C245.8,15.4 248.3,14.8 251,14.8C253.7,14.8 256.1,15.4 258.1,16.6C260.2,17.8 261.8,19.4 262.9,21.4C264,23.5 264.6,25.8 264.6,28.4C264.5,29.2 264.5,30.1 264.4,31.1ZM258.5,22.7C257.7,21.4 256.6,20.4 255.3,19.8C253.9,19.1 252.4,18.8 250.8,18.8C248.4,18.8 246.4,19.6 244.7,21.1C243,22.6 242.1,24.7 241.8,27.4L259.7,27.4C259.6,25.5 259.3,24 258.5,22.7Z" style="fill:rgb(55,55,58);fill-rule:nonzero;"/>
        <path d="M276.4,16C277.9,15.1 279.8,14.7 282,14.7L282,19.6L280.8,19.6C275.5,19.6 272.9,22.5 272.9,28.2L272.9,43.6L268.2,43.6L268.2,15.2L272.9,15.2L272.9,19.8C273.7,18.2 274.8,16.9 276.4,16Z" style="fill:rgb(55,55,58);fill-rule:nonzero;"/>
        <g>
            <path d="M19.2,44.6C19.6,44.3 20,44 20.4,43.7C22.2,42.7 25,41.5 26.9,40.8L29.1,40C30.2,39.6 31.2,39.1 32.2,38.5C33,38 33.8,37.3 34.4,36.6C35.4,35.4 36.2,34.1 36.5,32.5C36.6,32.2 36.6,32 36.6,31.7L36.6,31.3C36.8,29.5 36.5,27.6 35.7,26C35.2,25 34.4,24.2 33.5,23.5C30.9,21.4 27,20.6 23.8,20.1L23,20L22.3,19.9L21.7,20L20.8,19.9L19.1,19.7C17.8,19.5 16.4,19.3 15.2,18.8C14.5,18.5 13.9,18.2 13.4,17.7C13,17.3 12.7,16.7 12.7,16.1C12.7,15 13,14.1 13.9,13.4C14.5,12.9 15.2,12.6 15.9,12.4C16.7,12.2 17.5,12.1 18.3,12.1C20,12 22,12.1 23.6,12.9C24.5,13.4 25.2,14.1 25.5,15.1C25.6,15.5 25.7,15.9 25.8,16.4L25.8,17L36,17C35.8,14.5 35,12.2 33.3,10.4C32.1,9 30.2,7.8 28.4,7.1C27,6.5 25.4,6.1 23.9,5.9L23.1,5.8L22.6,5.7L22.2,5.7L21.1,5.6L2.5,5.6L2.5,17.6L2.7,18C3,20.3 4.4,22.2 6.4,23.5C8,24.5 10,25.2 11.8,25.7L12.2,25.8L14.2,26.2L14.8,26.3L15.5,26.4L20.3,27L21,27L22.2,27.2C23.4,27.4 24.9,27.9 25.8,28.9C26.1,29.2 26.3,29.6 26.4,30C26.5,30.3 26.5,30.5 26.5,30.8C26.5,31.2 26.5,31.7 26.4,32.1C25.8,34.3 23.6,35.2 21.6,35.4C21.2,35.5 20.8,35.5 20.4,35.5L18.4,35.5C16.9,35.4 15.4,34.9 14.1,34.1C13.4,33.7 12.8,33.2 12.4,32.4C11.9,31.6 11.7,30.7 11.6,29.8L1.6,29.8C1.8,32.5 2.6,34.9 4.5,36.9C6.1,38.6 7.8,39.5 10,40.3C11.5,40.8 12.9,41.4 14.3,42C15.7,42.6 17.4,43.3 18.6,44.2C18.8,44.3 19,44.5 19.2,44.7C19.1,44.6 19.1,44.6 19.2,44.6C19.2,44.7 19.2,44.6 19.2,44.6Z" style="fill:rgb(56,42,255);fill-rule:nonzero;"/>
        </g>
    </g>
</svg>
